<svg width="70" height="77" viewBox="0 0 70 77" fill="none" xmlns="http://www.w3.org/2000/svg">
<path d="M6.65647 2.38098C3.24335 16.17 -4.90946 43.1151 18.4184 43.6911C24.6757 43.8456 30.4868 43.2379 33.7184 37.2364C36.3317 32.3832 29.9292 29.7365 25.9624 32.381C20.8541 35.7865 17.7813 40.41 16.1234 47.1336C14.6956 52.9236 14.0643 57.1691 16.9624 62.381C21.9728 71.3915 32.3415 71.8461 42.4624 69.881C50.1878 68.381 55.2199 67.2971 60.876 64.1549C61.7941 63.6448 67.4748 60.1765 67.3288 60.381C64.7475 63.9948 60.1511 68.5759 56.9624 71.732C55.9624 72.7553 55.284 73.5594 54.4624 74.381C53.8632 74.9802 55.5567 73.1765 55.9624 72.7553C59.442 69.1419 63.6413 64.9571 66.82 61.072C68.812 58.6374 62.4624 57.881 59.9624 57.881C55.9473 57.881 52.4624 57.881 49.6878 57.4611" stroke="#FFC700" stroke-width="4" stroke-linecap="round"/>
</svg>
