<svg width="106" height="22" viewBox="0 0 106 22" fill="none" xmlns="http://www.w3.org/2000/svg">
<path fill-rule="evenodd" clip-rule="evenodd" d="M14.8241 1.41918C15.7634 0.403338 17.3051 8.07195e-09 19.3205 9.0417e-09C21.2669 9.97824e-09 22.9701 0.35548 23.96 1.5786C24.9455 2.7963 24.6563 4.21086 24.5783 4.59237C24.5745 4.61105 24.5712 4.62725 24.5686 4.64083C24.4318 5.34646 24.3099 5.97267 24.1992 6.54109C23.6427 9.39849 23.3707 10.7956 22.9373 13.4796C22.8159 14.2312 22.5988 15.1209 22.2249 16.035C23.2843 16.9852 24.747 17.6595 26.7214 17.6595C28.7942 17.6595 29.9632 16.9162 30.6934 16.0632C30.7049 16.0498 30.7163 16.0362 30.7276 16.0227C30.2919 15.23 29.975 14.4474 29.7605 13.7459C29.392 12.5414 28.7612 10.0039 28.2369 7.83489C27.9712 6.7358 27.7274 5.70853 27.5501 4.95626C27.4615 4.58001 27.3894 4.2723 27.3394 4.05848L27.3329 4.03074C27.2264 4.05788 27.2262 4.05708 27.226 4.05628L27.2249 4.05203L27.2227 4.04334L27.2182 4.02527C27.2152 4.0129 27.2122 3.99991 27.2091 3.98629C27.203 3.95907 27.1969 3.92927 27.191 3.89703C27.1792 3.83272 27.1682 3.75773 27.1603 3.67341C27.1446 3.50578 27.1408 3.29382 27.1725 3.05168C27.2385 2.54765 27.4543 1.95777 27.9415 1.426C28.8767 0.405086 30.4137 1.43794e-08 32.4161 1.53429e-08C34.3497 1.62733e-08 36.0477 0.357214 37.0327 1.58568C38.0065 2.80022 37.7213 4.20782 37.6441 4.58877L37.644 4.58902L37.6344 4.63743C37.4989 5.34304 37.3781 5.96924 37.2685 6.53767L37.2684 6.53775C36.7171 9.3951 36.4475 10.7924 36.0181 13.4768C35.911 14.1462 35.7285 14.9258 35.4274 15.7348C36.5174 16.839 38.0903 17.6595 40.2951 17.6595C42.3994 17.6595 43.586 16.9108 44.3244 16.0562C44.3408 16.0373 44.357 16.0182 44.373 15.999C43.9439 15.2145 43.6312 14.4404 43.4188 13.7459C43.0518 12.5462 42.4218 10.0509 41.8971 7.91728C41.6314 6.83711 41.3877 5.82871 41.2104 5.09057C41.1218 4.72139 41.0497 4.41958 40.9997 4.20989L40.9565 4.02821C40.8241 4.06241 40.8239 4.06154 40.8237 4.06068L40.8226 4.05639L40.8203 4.04764L40.8158 4.02943C40.8127 4.01698 40.8096 4.00389 40.8065 3.99018C40.8003 3.96277 40.7941 3.93276 40.7881 3.90029C40.7761 3.83553 40.7649 3.76003 40.7569 3.67514C40.7409 3.50635 40.7371 3.29297 40.7693 3.0493C40.8363 2.54141 41.0556 1.95019 41.5466 1.41918C42.486 0.403338 44.0276 2.093e-08 46.043 2.18997e-08C47.9894 2.28362e-08 49.6926 0.355481 50.6825 1.5786C51.668 2.7963 51.3788 4.21087 51.3009 4.59237C51.297 4.61105 51.2937 4.62725 51.2911 4.64083C51.1544 5.34647 51.0324 5.97269 50.9217 6.54112L50.9216 6.54161C50.3653 9.39866 50.0932 10.7957 49.6598 13.4796C49.5524 14.1445 49.3702 14.9173 49.0707 15.7196C50.1612 16.8314 51.7385 17.6595 53.9534 17.6595C55.8588 17.6595 57.0117 17.0457 57.7609 16.2953C57.247 15.4075 56.8832 14.5227 56.6463 13.7409C56.2669 12.4892 55.7391 9.94227 55.3228 7.82065C55.11 6.73566 54.9189 5.72313 54.7812 4.98224C54.7123 4.61161 54.6567 4.30851 54.6182 4.09776L54.6059 4.0305C54.4824 4.06237 54.4822 4.06152 54.482 4.06068L54.4809 4.05639L54.4786 4.04764L54.4741 4.02943C54.471 4.01698 54.4679 4.00389 54.4648 3.99017C54.4586 3.96276 54.4524 3.93275 54.4464 3.90029C54.4344 3.83553 54.4232 3.76003 54.4152 3.67514C54.3993 3.50635 54.3954 3.29297 54.4276 3.04929C54.4947 2.54141 54.7139 1.95019 55.205 1.41918C56.1443 0.403338 57.6859 2.75019e-08 59.7014 2.84716e-08C61.6477 2.94082e-08 63.3509 0.35548 64.3408 1.5786C65.3263 2.7963 65.0372 4.21086 64.9592 4.59237L64.959 4.59322C64.9553 4.61154 64.952 4.62746 64.9494 4.64083C64.8127 5.34645 64.6908 5.97266 64.5801 6.54107C64.0236 9.39849 63.7515 10.7956 63.3181 13.4796C63.1968 14.2312 62.9797 15.1208 62.6058 16.0348C63.6652 16.9851 65.128 17.6595 67.1025 17.6595C69.1754 17.6595 70.3444 16.9162 71.0745 16.0632C71.086 16.0498 71.0973 16.0364 71.1086 16.0229C70.6728 15.2302 70.3559 14.4474 70.1413 13.7459C69.7729 12.5414 69.142 10.0039 68.6177 7.83489C68.352 6.7358 68.1083 5.70853 67.931 4.95626C67.8423 4.58001 67.7702 4.2723 67.7202 4.05848L67.7138 4.0308C67.6076 4.05787 67.6074 4.05708 67.6072 4.05628L67.6061 4.05203L67.6039 4.04334L67.5994 4.02527L67.5956 4.00963L67.5903 3.98629C67.5842 3.95907 67.5781 3.92927 67.5721 3.89703C67.5604 3.83272 67.5493 3.75773 67.5414 3.67341C67.5258 3.50578 67.5219 3.29382 67.5536 3.05168C67.6196 2.54765 67.8354 1.95777 68.3226 1.426C69.2579 0.405086 70.7948 3.38094e-08 72.7972 3.47729e-08C74.7308 3.57033e-08 76.4288 0.357214 77.4138 1.58568C78.3877 2.80022 78.1024 4.20782 78.0252 4.58877C78.0214 4.60753 78.0181 4.6238 78.0155 4.63743C77.8801 5.34304 77.7593 5.96924 77.6496 6.53767L77.6495 6.53812C77.0983 9.39522 76.8287 10.7926 76.3992 13.4768C76.2921 14.1462 76.1096 14.9259 75.8085 15.735C76.8984 16.8391 78.4713 17.6595 80.6759 17.6595C82.7803 17.6595 83.9669 16.9108 84.7053 16.0562C84.7216 16.0373 84.7379 16.0182 84.7539 15.999C84.3249 15.2144 84.0122 14.4404 83.7997 13.7459C83.4327 12.5462 82.8027 10.0509 82.278 7.91728C82.0124 6.83711 81.7686 5.82871 81.5914 5.09057C81.5027 4.72139 81.4306 4.41958 81.3807 4.20989L81.3374 4.02819C81.205 4.06241 81.2048 4.06154 81.2045 4.06068L81.2034 4.05639L81.2012 4.04764L81.1966 4.02943L81.1919 4.00961L81.1874 3.99017C81.1812 3.96276 81.1749 3.93275 81.1689 3.90029C81.157 3.83553 81.1457 3.76003 81.1377 3.67514C81.1218 3.50635 81.1179 3.29297 81.1501 3.0493C81.2172 2.54141 81.4365 1.95019 81.9275 1.41918C82.8668 0.403338 84.4085 4.03599e-08 86.4239 4.13296e-08C88.3703 4.22662e-08 90.0735 0.35548 91.0634 1.5786C92.0489 2.7963 91.7597 4.21087 91.6817 4.59237C91.6779 4.61105 91.6746 4.62725 91.672 4.64083C91.5388 5.32806 91.4197 5.93996 91.3113 6.49651L91.3065 6.52088L91.3026 6.54096L91.3025 6.5415L91.3023 6.54279C90.7461 9.39904 90.474 10.7961 90.0407 13.4796C89.9333 14.1444 89.751 14.9173 89.4516 15.7195C90.5421 16.8314 92.1194 17.6595 94.3343 17.6595C96.1495 17.6595 97.2818 17.1025 98.0326 16.4009L94.8618 4.05639L94.8606 4.0516L94.8596 4.04764L94.855 4.02943C94.8539 4.02466 94.8527 4.01979 94.8515 4.01483C94.8496 4.00685 94.8477 3.99863 94.8458 3.99017C94.8396 3.96276 94.8334 3.93275 94.8274 3.90029C94.8154 3.83553 94.8042 3.76003 94.7961 3.67514C94.7802 3.50635 94.7763 3.29297 94.8085 3.04929C94.8756 2.54141 95.0949 1.95019 95.5859 1.41918C96.5252 0.403338 98.0669 4.69319e-08 100.082 4.79016e-08C102.029 4.88382e-08 103.732 0.35548 104.722 1.5786C105.707 2.7963 105.418 4.21086 105.34 4.59237C105.336 4.61105 105.333 4.62725 105.33 4.64083C105.195 5.33846 105.074 5.95846 104.965 6.52174L104.961 6.54106L104.961 6.54136C104.405 9.39858 104.132 10.7957 103.699 13.4796C103.459 14.9636 102.847 16.986 101.39 18.6713C99.8707 20.4303 97.5675 21.6595 94.3343 21.6595C91.2488 21.6595 88.948 20.604 87.2763 19.159C85.765 20.6534 83.6011 21.6595 80.6759 21.6595C77.6025 21.6595 75.3077 20.6123 73.6376 19.176C72.1393 20.6595 69.9962 21.6595 67.1025 21.6595C64.1853 21.6595 61.9758 20.702 60.3396 19.3633C58.8405 20.7444 56.7431 21.6595 53.9534 21.6595C50.8679 21.6595 48.5671 20.604 46.8954 19.159C45.3841 20.6534 43.2202 21.6595 40.2951 21.6595C37.2216 21.6595 34.9267 20.6122 33.2566 19.1759C31.7582 20.6594 29.6151 21.6595 26.7214 21.6595C23.8043 21.6595 21.5948 20.7021 19.9586 19.3634C18.4595 20.7444 16.3622 21.6595 13.5725 21.6595C7.01222 21.6595 3.9992 16.8882 3.03792 13.7459C2.66189 12.5167 2.02741 9.74103 1.50519 7.37159C1.23937 6.16544 0.995508 5.03133 0.818172 4.19909C0.729475 3.78283 0.657349 3.44175 0.607354 3.20453L0.549641 2.93012L0.534527 2.858L0.530632 2.83939L0.529629 2.8346L0.529368 2.83334L0.529297 2.83301C0.529279 2.83292 0.529267 2.83286 2.48699 2.42383L4.44473 2.01484L4.44478 2.01509L4.445 2.01615L4.44592 2.02055L4.44965 2.03837L4.46442 2.10883L4.52137 2.37963C4.57084 2.61433 4.64234 2.95248 4.73034 3.36548C4.90641 4.19175 5.14821 5.31629 5.41145 6.51067C5.94736 8.94225 6.5446 11.5351 6.86294 12.5757C7.54396 14.8019 9.45793 17.6595 13.5725 17.6595C15.4777 17.6595 16.6307 17.0458 17.3798 16.2954C16.8659 15.4076 16.5021 14.5227 16.2651 13.7409C15.8858 12.4892 15.3579 9.94227 14.9417 7.82065C14.7288 6.73566 14.5378 5.72313 14.4001 4.98224C14.3312 4.61161 14.2755 4.30851 14.237 4.09776L14.2248 4.03057C14.1016 4.06236 14.1014 4.06152 14.1011 4.06068L14.1 4.05639L14.0978 4.04764L14.0932 4.02943C14.0902 4.01698 14.0871 4.00389 14.084 3.99017C14.0778 3.96276 14.0715 3.93275 14.0655 3.90029C14.0536 3.83553 14.0423 3.76003 14.0343 3.67514C14.0184 3.50635 14.0145 3.29297 14.0467 3.04929C14.1138 2.54141 14.3331 1.95019 14.8241 1.41918ZM86.7197 9.19881C86.9084 8.17906 87.1123 7.13219 87.3784 5.76571L87.3785 5.76558C87.4771 5.25901 87.5843 4.70851 87.7025 4.09919C87.4339 4.04576 87.0243 4 86.4239 4C86.0128 4 85.6962 4.02239 85.4559 4.0527C85.464 4.08667 85.4723 4.12129 85.4808 4.15652C85.6569 4.88995 85.8989 5.89094 86.1623 6.96202C86.3447 7.70369 86.5351 8.46941 86.7197 9.19881ZM73.7241 5.76892C73.4604 7.13543 73.2584 8.18227 73.0715 9.20194C72.8844 8.45195 72.691 7.6615 72.5057 6.89502C72.2442 5.81305 72.0038 4.80015 71.828 4.05428C72.0662 4.02323 72.3827 4 72.7972 4C73.3826 4 73.783 4.04446 74.0463 4.09639C73.9288 4.70816 73.8222 5.26065 73.7241 5.76892ZM60.6557 5.76671L60.6558 5.7664L60.656 5.76543L60.6577 5.75633L60.6603 5.74336C60.7577 5.24291 60.8635 4.69961 60.98 4.09919C60.7114 4.04576 60.3017 4 59.7014 4C59.2581 4 58.9248 4.02602 58.6783 4.05994L58.7138 4.25115C58.8499 4.98336 59.0384 5.98225 59.248 7.05054C59.4441 8.05018 59.6529 9.07957 59.8512 9.99975C60.0833 8.70577 60.32 7.49056 60.6557 5.76671ZM58.3604 3.0827L58.3589 3.07639L58.3548 3.05987L58.3526 3.05154L58.3515 3.04736C58.3512 3.04604 58.3508 3.04473 57.8693 3.17109L58.3604 3.0827ZM46.9976 5.76557C46.7314 7.13221 46.5275 8.17917 46.3388 9.19903C46.1541 8.46956 45.9637 7.70376 45.7813 6.96202C45.5179 5.89094 45.276 4.88995 45.0998 4.15652L45.0749 4.05271C45.3153 4.02239 45.6319 4 46.043 4C46.6434 4 47.0531 4.04576 47.3216 4.09919C47.2049 4.70136 47.0988 5.24608 47.0011 5.74773L46.9976 5.76557ZM32.6905 9.20129C32.8774 8.18184 33.0793 7.13517 33.343 5.76897L33.343 5.76892L33.3453 5.75691C33.4427 5.25195 33.5486 4.70335 33.6652 4.09639C33.4019 4.04446 33.0014 4 32.4161 4C32.0017 4 31.6853 4.02322 31.4471 4.05424C31.6229 4.80012 31.8633 5.81303 32.1249 6.89502C32.3101 7.66128 32.5034 8.4515 32.6905 9.20129ZM20.2751 5.76551C19.9391 7.49031 19.7024 8.70591 19.4702 10.0005C19.2719 9.0801 19.063 8.05044 18.8668 7.05054C18.6573 5.98225 18.4688 4.98336 18.3327 4.25115L18.2972 4.05998C18.5437 4.02604 18.8771 4 19.3205 4C19.9209 4 20.3305 4.04576 20.5991 4.09919C20.4815 4.70576 20.3747 5.25404 20.2764 5.75873L20.2751 5.76551ZM17.978 3.07639L17.9795 3.08266L17.4891 3.17093C17.97 3.04473 17.9703 3.04605 17.9707 3.04736L17.9717 3.05154L17.9739 3.05987L17.978 3.07639ZM101.037 5.76666C100.758 7.19913 100.547 8.28038 100.351 9.34745L98.995 4.06926C99.2468 4.03091 99.5992 4 100.082 4C100.683 4 101.092 4.04576 101.361 4.09919C101.243 4.70844 101.136 5.25889 101.037 5.76542L101.037 5.76666Z" fill="#F3CEB4"/>
</svg>
