<svg width="131" height="66" viewBox="0 0 131 66" fill="none" xmlns="http://www.w3.org/2000/svg">
<path d="M60.8736 32.9648L43.5461 24.406L42.9914 24.132L42.6883 23.5927L33.3896 7.04705L24.091 23.5927L23.7879 24.132L23.2332 24.406L5.90569 32.9648L23.2332 41.5237L23.7879 41.7977L24.091 42.337L33.3896 58.8826L42.6883 42.337L42.9914 41.7977L43.5461 41.5237L60.8736 32.9648Z" stroke="#F3CEB4" stroke-width="4"/>
<path d="M91.8736 32.9648L74.5461 24.406L73.9914 24.132L73.6883 23.5927L64.3896 7.04705L55.091 23.5927L54.7879 24.132L54.2332 24.406L36.9057 32.9648L54.2332 41.5237L54.7879 41.7977L55.091 42.337L64.3896 58.8826L73.6883 42.337L73.9914 41.7977L74.5461 41.5237L91.8736 32.9648Z" stroke="#F3CEB4" stroke-width="4"/>
<path d="M124.874 32.9647L107.546 24.4059L106.991 24.1319L106.688 23.5925L97.3896 7.04693L88.091 23.5925L87.7879 24.1319L87.2332 24.4059L69.9057 32.9647L87.2332 41.5236L87.7879 41.7976L88.091 42.3369L97.3896 58.8825L106.688 42.3369L106.991 41.7976L107.546 41.5236L124.874 32.9647Z" stroke="#F3CEB4" stroke-width="4"/>
</svg>
